<svg id="visual" viewBox="0 0 1920 1080" width="1920" height="1080" xmlns="http://www.w3.org/2000/svg" xmlns:xlink="http://www.w3.org/1999/xlink" version="1.1"><rect x="0" y="0" width="1920" height="1080" fill="#0F1113"></rect><defs><linearGradient id="grad1_0" x1="43.8%" y1="0%" x2="100%" y2="100%"><stop offset="14.444444444444446%" stop-color="#0f1113" stop-opacity="1"></stop><stop offset="85.55555555555554%" stop-color="#0f1113" stop-opacity="1"></stop></linearGradient></defs><defs><linearGradient id="grad2_0" x1="0%" y1="0%" x2="56.3%" y2="100%"><stop offset="14.444444444444446%" stop-color="#0f1113" stop-opacity="1"></stop><stop offset="85.55555555555554%" stop-color="#0f1113" stop-opacity="1"></stop></linearGradient></defs><g transform="translate(1920, 0)"><path d="M0 702C-63.4 680.8 -126.8 659.7 -211.4 650.5C-296 641.4 -401.7 644.2 -412.6 567.9C-423.5 491.7 -339.5 336.3 -376.2 273.3C-412.9 210.3 -570.4 239.7 -644.8 209.5C-719.2 179.4 -710.6 89.7 -702 0L0 0Z" fill="#181a1c"></path></g><g transform="translate(0, 1080)"><path d="M0 -702C74.5 -696.8 149.1 -691.6 216.9 -667.6C284.8 -643.7 346 -601 396.8 -546.1C447.5 -491.1 487.7 -423.9 488.6 -355C489.6 -286.1 451.3 -215.5 480.3 -156.1C509.3 -96.6 605.6 -48.3 702 0L0 0Z" fill="#181a1c"></path></g></svg>