<svg xmlns="http://www.w3.org/2000/svg" x="0px" y="0px" width="20" height="20" viewBox="0,0,256,256">
<g fill="#5b009a" fill-rule="nonzero" stroke="none" stroke-width="1" stroke-linecap="butt" stroke-linejoin="miter" stroke-miterlimit="10" stroke-dasharray="" stroke-dashoffset="0" font-family="none" font-weight="none" font-size="none" text-anchor="none" style="mix-blend-mode: normal"><g transform="scale(5.12,5.12)"><path d="M25,2c-12.64545,0 -23,10.35455 -23,23c0,12.64545 10.35455,23 23,23c12.64545,0 23,-10.35455 23,-23c0,-12.64545 -10.35455,-23 -23,-23zM25,4c11.55454,0 21,9.44546 21,21c0,11.55454 -9.44546,21 -21,21c-11.55454,0 -21,-9.44546 -21,-21c0,-11.55454 9.44546,-21 21,-21zM24.98438,5.87891c-0.26522,0.00414 -0.51793,0.11347 -0.70254,0.30394c-0.18461,0.19047 -0.28599,0.44647 -0.28184,0.71169v2.05859c-0.0051,0.36064 0.18438,0.69608 0.49587,0.87789c0.3115,0.18181 0.69676,0.18181 1.00825,0c0.3115,-0.18181 0.50097,-0.51725 0.49587,-0.87789v-2.05859c0.00423,-0.27064 -0.10141,-0.53143 -0.2928,-0.72282c-0.19139,-0.19139 -0.45219,-0.29703 -0.72282,-0.2928zM15.89258,8.30078c-0.35248,0.01948 -0.66858,0.22334 -0.83172,0.53639c-0.16314,0.31306 -0.14916,0.68893 0.0368,0.989l1.07422,1.79102c0.18148,0.31133 0.51641,0.50095 0.87674,0.49637c0.36033,-0.00458 0.69033,-0.20266 0.86383,-0.5185c0.1735,-0.31584 0.16368,-0.7006 -0.02573,-1.00717l-1.07422,-1.79102c-0.18897,-0.32518 -0.54439,-0.51686 -0.91992,-0.49609zM34.07813,8.30078c-0.3652,-0.00972 -0.70664,0.18047 -0.89062,0.49609l-1.07422,1.79102c-0.1894,0.30657 -0.19923,0.69133 -0.02573,1.00717c0.1735,0.31584 0.5035,0.51392 0.86383,0.5185c0.36033,0.00458 0.69526,-0.18504 0.87674,-0.49637l1.07422,-1.79102c0.1881,-0.30446 0.19917,-0.68622 0.02905,-1.00107c-0.17012,-0.31485 -0.49552,-0.5148 -0.85327,-0.52432zM9.35938,14.84375c-0.44257,0.02128 -0.81838,0.33123 -0.92351,0.76166c-0.10513,0.43043 0.0855,0.87872 0.46843,1.10162l1.79102,1.07422c0.3069,0.19842 0.69759,0.21364 1.019,0.0397c0.32141,-0.17394 0.52235,-0.50935 0.52408,-0.8748c0.00174,-0.36545 -0.196,-0.70275 -0.51574,-0.87975l-1.79102,-1.07422c-0.17144,-0.10602 -0.37091,-0.15776 -0.57227,-0.14844zM40.02734,15c-0.13203,-0.00362 -0.26346,0.01895 -0.38672,0.06641l-15.98828,6.16211c-0.18972,0.07335 -0.35256,0.2028 -0.4668,0.37109c-1.25363,0.66726 -2.18555,1.87495 -2.18555,3.40039c0,2.2098 1.7902,4 4,4c0.69089,0 1.25811,-0.31906 1.82031,-0.61914c0.25188,0.00967 0.49812,-0.07613 0.68945,-0.24023l13.14453,-11.38477c0.31193,-0.27003 0.42603,-0.7039 0.2873,-1.09244c-0.13874,-0.38855 -0.50183,-0.65203 -0.91425,-0.66342zM35.01758,18.99219l-8.69922,7.53516c-0.02756,0.01692 -0.05429,0.03517 -0.08008,0.05469c-0.34016,0.2627 -0.74819,0.41797 -1.23828,0.41797c-1.1902,0 -2,-0.8098 -2,-2c0,-0.94291 0.53047,-1.61589 1.33008,-1.88086c0.05254,-0.01787 0.10349,-0.04008 0.15234,-0.06641zM7,23.89453c-0.36064,-0.0051 -0.69608,0.18438 -0.87789,0.49587c-0.18181,0.3115 -0.18181,0.69676 0,1.00825c0.18181,0.3115 0.51725,0.50097 0.87789,0.49587h2.06055c0.36064,0.0051 0.69608,-0.18438 0.87789,-0.49587c0.18181,-0.3115 0.18181,-0.69676 0,-1.00825c-0.18181,-0.3115 -0.51725,-0.50097 -0.87789,-0.49587zM40.93945,23.89453c-0.36064,-0.0051 -0.69608,0.18438 -0.87789,0.49587c-0.18181,0.3115 -0.18181,0.69676 0,1.00825c0.18181,0.3115 0.51725,0.50097 0.87789,0.49587h2.06055c0.36064,0.0051 0.69608,-0.18438 0.87789,-0.49587c0.18181,-0.3115 0.18181,-0.69676 0,-1.00825c-0.18181,-0.3115 -0.51725,-0.50097 -0.87789,-0.49587zM11.23633,31.85742c-0.19081,-0.00315 -0.37853,0.04835 -0.54102,0.14844l-1.79102,1.07617c-0.31133,0.18148 -0.50095,0.51641 -0.49637,0.87674c0.00458,0.36033 0.20266,0.69033 0.5185,0.86383c0.31584,0.1735 0.7006,0.16367 1.00717,-0.02573l1.79102,-1.07617c0.38719,-0.22643 0.57628,-0.68295 0.46258,-1.11684c-0.1137,-0.43389 -0.50238,-0.73901 -0.95086,-0.74644zM38.73438,31.85742c-0.44325,0.01971 -0.82053,0.3291 -0.92665,0.75991c-0.10612,0.43081 0.08429,0.88004 0.46767,1.10337l1.79102,1.07617c0.30657,0.1894 0.69133,0.19923 1.00717,0.02573c0.31584,-0.1735 0.51392,-0.5035 0.5185,-0.86383c0.00458,-0.36033 -0.18504,-0.69526 -0.49637,-0.87674l-1.79102,-1.07617c-0.17088,-0.10564 -0.36961,-0.15736 -0.57031,-0.14844z"></path></g></g>
</svg>