<svg xmlns="http://www.w3.org/2000/svg" x="0px" y="0px" width="20" height="20" viewBox="0,0,256,256">
<g fill-opacity="0.7" fill="#FF7A00" fill-rule="nonzero" stroke="none" stroke-width="1" stroke-linecap="butt" stroke-linejoin="miter" stroke-miterlimit="10" stroke-dasharray="" stroke-dashoffset="0" font-family="none" font-weight="none" font-size="none" text-anchor="none" style="mix-blend-mode: normal"><g transform="scale(8.53333,8.53333)"><path d="M6.01172,5.99219v0.01172h-4.00977c-0.13,0 -0.26063,0.00906 -0.39063,0.03906h-0.0293c-0.92,0.2 -1.58008,1.01094 -1.58008,1.96094v12c0,0.13 0.01102,0.25891 0.04102,0.37891c0,0.01 -0.00023,0.0193 0.00977,0.0293c0.19,0.93 1.00922,1.5918 1.94922,1.5918h9.21094l1.59961,-4l1.01953,-2.57031l-3.08008,-4.62109l-0.53906,-0.82031l0.1582,-0.25l2.51172,-3.75zM16.48242,5.99219l-1.25977,1.88086l-1.39062,2.08984l3.07031,5.13086l-1.83984,4.89844l-0.75,2h0.9043l-0.00391,0.01172h1.23828l0.00391,-0.01172l11.54688,0.01172c0.13,0 0.26086,-0.02102 0.38086,-0.04102c0.02,0 0.02906,-0.00977 0.03906,-0.00977c0.92,-0.2 1.58008,-1.00922 1.58008,-1.94922v-12c0,-0.13 -0.01906,-0.26062 -0.03906,-0.39062c0,-0.01 -0.01172,-0.02125 -0.01172,-0.03125c-0.2,-0.92 -1.00922,-1.57812 -1.94922,-1.57812l-9.13086,-0.01172zM4.01172,7.99219h5l-1.25977,1.90039l1.69922,2.56055c-0.02,0.02 -0.0293,0.05031 -0.0293,0.07031c-0.05,0.11 -0.10063,0.21984 -0.14062,0.33984c-0.02,0.05 -0.03906,0.09062 -0.03906,0.14063c-0.05,0.14 -0.09109,0.27969 -0.12109,0.42969c-0.04,0.15 -0.05813,0.29898 -0.07812,0.45898c-0.03,0.2 -0.04102,0.40133 -0.04102,0.61133c0,1.42 0.59977,2.67 1.50977,3.5h0.55078l-0.86133,2h-6.19922c0,-1.11 -0.9,-2 -2,-2v-8c1.1,0 2,-0.9 2,-2h0.01953zM17.54102,8.00391h8.46094c0,1.1 0.89,2 2,2v8c-1.11,0 -2,0.89 -2,2l-8.80078,-0.01172l0.75,-1.99219h1.53516c0.916,-0.825 1.51367,-2.078 1.51367,-3.5c0,-2.485 -1.791,-4.5 -4,-4.5c-0.263,0 -0.51567,0.04066 -0.76367,0.09766l-0.04492,-0.07422zM25,13c-0.55228,0 -1,0.44772 -1,1c0,0.55228 0.44772,1 1,1c0.55228,0 1,-0.44772 1,-1c0,-0.55228 -0.44772,-1 -1,-1zM5.00195,13.00391c-0.55228,0 -1,0.44772 -1,1c0,0.55228 0.44772,1 1,1c0.55228,0 1,-0.44772 1,-1c0,-0.55228 -0.44772,-1 -1,-1z"></path></g></g>
</svg>