<svg id="visual" viewBox="0 0 1920 1080" width="1920" height="1080" xmlns="http://www.w3.org/2000/svg" xmlns:xlink="http://www.w3.org/1999/xlink" version="1.1"><rect x="0" y="0" width="1920" height="1080" fill="#0F1113"></rect><g transform="translate(1001.5338966314915 555.7737426903252)"><path d="M191.1 -365.8C234.6 -305.9 247.6 -228.2 244.5 -164.3C241.3 -100.3 221.9 -50.2 214.4 -4.3C206.9 41.5 211.3 83 222.5 160.9C233.8 238.9 251.9 353.3 215.9 402.9C180 452.4 90 437.2 26.3 391.6C-37.3 346 -74.7 270 -121.6 226.7C-168.5 183.5 -225 173 -255.5 140.7C-286 108.3 -290.5 54.2 -303.3 -7.4C-316.2 -69 -337.4 -138 -323.4 -199.1C-309.5 -260.1 -260.5 -313.2 -200.8 -363.7C-141 -414.2 -70.5 -462.1 1.7 -465C73.8 -467.9 147.7 -425.8 191.1 -365.8" fill="#CED4DA"></path></g></svg>