<svg xmlns="http://www.w3.org/2000/svg" x="0px" y="0px" width="20" height="20" viewBox="0,0,256,256">
<g fill-opacity="0.7" fill="#3C9300" fill-rule="nonzero" stroke="none" stroke-width="1" stroke-linecap="butt" stroke-linejoin="miter" stroke-miterlimit="10" stroke-dasharray="" stroke-dashoffset="0" font-family="none" font-weight="none" font-size="none" text-anchor="none" style="mix-blend-mode: normal"><g transform="scale(5.12,5.12)"><path d="M20,4c-0.552,0 -1,0.448 -1,1v13c0,6.06341 4.93659,11 11,11c6.06341,0 11,-4.93659 11,-11v-13c0,-0.552 -0.448,-1 -1,-1c-0.552,0 -1,0.448 -1,1v13c0,4.98259 -4.01741,9 -9,9c-4.98259,0 -9,-4.01741 -9,-9v-13c0,-0.552 -0.448,-1 -1,-1zM24,4c-0.552,0 -1,0.448 -1,1v5.86328c0.598,-0.586 1.271,-1.09167 2,-1.51367v-4.34961c0,-0.552 -0.448,-1 -1,-1zM28,4c-0.552,0 -1,0.448 -1,1v3.45898c0.641,-0.201 1.31,-0.3392 2,-0.4082v-3.05078c0,-0.552 -0.448,-1 -1,-1zM32,4c-0.552,0 -1,0.448 -1,1v3.05078c0.69,0.069 1.359,0.2072 2,0.4082v-3.45898c0,-0.552 -0.448,-1 -1,-1zM36,4c-0.552,0 -1,0.448 -1,1v4.34961c0.729,0.422 1.402,0.92767 2,1.51367v-5.86328c0,-0.552 -0.448,-1 -1,-1zM30.19922,11c-1.51374,0 -2.85473,0.81362 -3.76367,2.00391c-0.44327,0.58048 -0.7886,1.25845 -1.0332,1.99609h-1.40234v2h1.07617c-0.01081,0.17279 -0.07617,0.32394 -0.07617,0.5c0,0.17606 0.06536,0.32721 0.07617,0.5h-1.07617v2h1.40234c0.2446,0.73765 0.58993,1.41561 1.0332,1.99609c0.90894,1.19029 2.24994,2.00391 3.76367,2.00391c1.40879,0 2.66915,-0.71206 3.5625,-1.76172l-1.52344,-1.29492c-0.59265,0.69634 -1.29385,1.05664 -2.03906,1.05664c-0.80626,0 -1.56277,-0.41659 -2.17383,-1.2168c-0.16506,-0.21615 -0.2684,-0.51763 -0.40039,-0.7832h2.375v-2h-2.92187c-0.01484,-0.17309 -0.07812,-0.32101 -0.07812,-0.5c0,-0.17899 0.06329,-0.32691 0.07813,-0.5h2.92188v-2h-2.375c0.13199,-0.26557 0.23533,-0.56705 0.40039,-0.7832c0.61106,-0.80021 1.36756,-1.2168 2.17383,-1.2168c0.74521,0 1.44641,0.3603 2.03906,1.05664l1.52344,-1.29492c-0.89335,-1.04966 -2.15371,-1.76172 -3.5625,-1.76172zM44.1582,25.98438c-0.18212,0.00271 -0.36368,0.0195 -0.54492,0.04883c-0.48332,0.0782 -0.95871,0.25324 -1.39648,0.5293l-11.09961,6.83984c-0.25621,-0.14009 -0.57035,-0.29478 -0.98438,-0.49414c-0.47575,-0.22908 -0.97326,-0.46281 -1.25391,-0.58984c-1.51069,-0.68316 -6.32701,-2.67111 -9.98242,-4.27539c-1.56374,-0.68624 -3.23509,-1.03697 -4.9082,-1.05273c-1.67311,-0.01576 -3.34944,0.304 -4.92578,0.96094l-6.44727,2.68555c-0.33775,0.13203 -0.57756,0.43654 -0.62674,0.79583c-0.04918,0.35929 0.09998,0.71704 0.38982,0.93498c0.28984,0.21794 0.67495,0.2619 1.00645,0.1149l6.44727,-2.68555c2.64932,-1.10411 5.63125,-1.07539 8.25977,0.07813c3.69059,1.61972 8.58558,3.64278 9.96289,4.26563c0.24736,0.11197 0.74694,0.34689 1.21094,0.57031c0.464,0.22342 0.9517,0.4706 0.99219,0.49414c0.44618,0.25952 0.74219,0.72407 0.74219,1.2832c0,0.84081 -0.65919,1.5 -1.5,1.5c-0.11917,0 -0.23222,-0.01333 -0.33984,-0.03906c-0.00065,0 -0.0013,0 -0.00195,0c-0.02523,-0.006 -0.81638,-0.2282 -1.77539,-0.50977c-0.95901,-0.28157 -2.17926,-0.64318 -3.37891,-1c-2.3993,-0.71364 -4.7168,-1.4082 -4.7168,-1.4082c-0.52909,-0.15857 -1.08655,0.14181 -1.24512,0.6709c-0.15857,0.52909 0.14181,1.08655 0.6709,1.24512c0,0 2.32095,0.69385 4.72266,1.4082c1.20085,0.35718 2.42152,0.71914 3.38477,1.00195c0.96232,0.28254 1.57491,0.46594 1.875,0.53711c0.26037,0.06226 0.52985,0.09375 0.80469,0.09375c1.92119,0 3.5,-1.57881 3.5,-3.5c0,-0.59212 -0.15464,-1.14862 -0.41797,-1.63867l10.69336,-6.58984c0.00327,-0.00193 0.00652,-0.00389 0.00977,-0.00586c0.83692,-0.52776 1.91384,-0.28387 2.44141,0.55273c0.51245,0.8123 0.29824,1.85687 -0.49219,2.40234c-0.01256,0.00818 -0.02493,0.01665 -0.03711,0.02539l-15.77344,11.95117c-1.07671,0.81634 -2.48777,1.03588 -3.76172,0.58398l-11.64844,-4.12891c-2.69332,-1.11162 -5.77577,-0.73727 -8.125,0.98633l-3.48438,2.55664c-0.29995,0.2069 -0.46363,0.56056 -0.42724,0.92313c0.03639,0.36256 0.2671,0.67664 0.60218,0.8198c0.33509,0.14316 0.72151,0.09274 1.00865,-0.1316l3.48437,-2.55469c1.78877,-1.3124 4.12706,-1.59638 6.17773,-0.75c0.01548,0.00625 0.03111,0.01211 0.04688,0.01758l11.69727,4.14648c1.90605,0.67611 4.02738,0.34666 5.63867,-0.875l15.73633,-11.92383c1.65557,-1.14252 2.12238,-3.41353 1.04883,-5.11523c-0.72478,-1.14935 -1.98491,-1.77485 -3.25977,-1.75586z"></path></g></g>
</svg>