<svg xmlns="http://www.w3.org/2000/svg" x="0px" y="0px" width="48" height="48" viewBox="0,0,256,256">
<g fill="#65a30d" fill-rule="nonzero" stroke="none" stroke-width="1" stroke-linecap="butt" stroke-linejoin="miter" stroke-miterlimit="10" stroke-dasharray="" stroke-dashoffset="0" font-family="none" font-weight="none" font-size="none" text-anchor="none" style="mix-blend-mode: normal"><g transform="scale(10.66667,10.66667)"><path d="M8.5,1c-1.37498,0 -2.5,1.12502 -2.5,2.5v16c0,1.37498 1.12502,2.5 2.5,2.5h7c1.37498,0 2.5,-1.12502 2.5,-2.5v-16c0,-1.37498 -1.12502,-2.5 -2.5,-2.5h-2h-3zM8.5,2h2h0.5c0.276,0 0.5,0.224 0.5,0.5c0,0.276 0.224,0.5 0.5,0.5c0.276,0 0.5,-0.224 0.5,-0.5c0,-0.276 0.224,-0.5 0.5,-0.5h0.5h2c0.83501,0 1.5,0.66498 1.5,1.5v16c0,0.83501 -0.66499,1.5 -1.5,1.5h-7c-0.83502,0 -1.5,-0.66499 -1.5,-1.5v-16c0,-0.83502 0.66498,-1.5 1.5,-1.5z"></path></g></g>
</svg>