<svg xmlns="http://www.w3.org/2000/svg" x="0px" y="0px" width="20" height="20" viewBox="0,0,256,256">
<g fill-opacity="0.7" fill="#5C7CFA" fill-rule="nonzero" stroke="none" stroke-width="1" stroke-linecap="butt" stroke-linejoin="miter" stroke-miterlimit="10" stroke-dasharray="" stroke-dashoffset="0" font-family="none" font-weight="none" font-size="none" text-anchor="none" style="mix-blend-mode: normal"><g transform="scale(5.33333,5.33333)"><path d="M11.5,5c-3.032,0 -5.5,2.468 -5.5,5.5c0,3.032 2.468,5.5 5.5,5.5c3.032,0 5.5,-2.468 5.5,-5.5c0,-3.032 -2.468,-5.5 -5.5,-5.5zM36.5,5c-3.032,0 -5.5,2.468 -5.5,5.5c0,3.032 2.468,5.5 5.5,5.5c3.032,0 5.5,-2.468 5.5,-5.5c0,-3.032 -2.468,-5.5 -5.5,-5.5zM11.47852,19c-0.39034,0.00571 -0.76308,0.16335 -1.03906,0.43945l-4,4c-0.39185,0.37623 -0.54969,0.9349 -0.41265,1.46055c0.13704,0.52565 0.54754,0.93616 1.07319,1.07319c0.52565,0.13704 1.08432,-0.02081 1.46055,-0.41265l1.43945,-1.43945v8.0918c-2.30456,0.65545 -4,2.77565 -4,5.28711c0,3.032 2.468,5.5 5.5,5.5c2.51146,0 4.63165,-1.69544 5.28711,-4h15.71289c3.01977,0 5.5,-2.48023 5.5,-5.5v-9.37891l1.43945,1.43945c0.37623,0.39185 0.9349,0.54969 1.46055,0.41265c0.52565,-0.13704 0.93616,-0.54754 1.07319,-1.07319c0.13704,-0.52565 -0.0208,-1.08432 -0.41265,-1.46055l-4,-4c-0.28651,-0.28663 -0.6768,-0.44514 -1.08203,-0.43945c-0.39034,0.00571 -0.76308,0.16335 -1.03906,0.43945l-4,4c-0.39185,0.37623 -0.54969,0.9349 -0.41265,1.46055c0.13704,0.52565 0.54754,0.93616 1.07319,1.07319c0.52565,0.13704 1.08432,-0.0208 1.46055,-0.41265l1.43945,-1.43945v9.37891c0,1.39823 -1.10177,2.5 -2.5,2.5h-15.71289c-0.5196,-1.8269 -1.96021,-3.26751 -3.78711,-3.78711v-8.0918l1.43945,1.43945c0.37623,0.39185 0.9349,0.54969 1.46055,0.41265c0.52565,-0.13704 0.93616,-0.54754 1.07319,-1.07319c0.13704,-0.52565 -0.0208,-1.08432 -0.41265,-1.46055l-4,-4c-0.28651,-0.28663 -0.6768,-0.44514 -1.08203,-0.43945z"></path></g></g>
</svg>