<svg xmlns="http://www.w3.org/2000/svg" x="0px" y="0px" width="24" height="24" viewBox="0 0 24 24">
<path d="M 5 1 L 5 3 L 7 3 L 7 1 L 5 1 z M 17 1 L 17 3 L 19 3 L 19 1 L 17 1 z M 16.992188 3.96875 L 8.9609375 10.494141 L 5.4589844 7.9921875 L 0.1171875 12.349609 L 1.3828125 13.900391 L 5.5410156 10.507812 L 9.0390625 13.005859 L 17.007812 6.53125 L 20.035156 8.9277344 L 23.912109 5.4980469 L 22.587891 4.0019531 L 19.964844 6.3222656 L 16.992188 3.96875 z M 5 5 L 5 7 L 7 7 L 7 5 L 5 5 z M 17 9 L 17 11 L 19 11 L 19 9 L 17 9 z M 5 13 L 5 15 L 7 15 L 7 13 L 5 13 z M 17 13 L 17 15 L 19 15 L 19 13 L 17 13 z M 5 17 L 5 19 L 7 19 L 7 17 L 5 17 z M 17 17 L 17 19 L 19 19 L 19 17 L 17 17 z M 0 21 L 0 23 L 24 23 L 24 21 L 0 21 z"></path>
</svg>